/* XPM */
static char *d1c5bca7d769428989b2a61861a87b13LBJc24Xv3UlpDet5[] = {
/* columns rows colors chars-per-pixel */
"100 100 86 1 ",
"  c #1C3446",
". c #1E3847",
"X c #1D3748",
"o c #1E3A49",
"O c #203749",
"+ c #203E4B",
"@ c #21434E",
"# c #234750",
"$ c #294653",
"% c #254B52",
"& c #2D4B57",
"* c #275155",
"= c #285457",
"- c #295758",
"; c #2C5E5C",
": c #2D615D",
"> c #30625F",
", c #395460",
"< c #2F6260",
"1 c #336562",
"2 c #3B6766",
"3 c #376A66",
"4 c #3F6369",
"5 c #3B6D6A",
"6 c #3D706B",
"7 c #42606A",
"8 c #41736F",
"9 c #466D70",
"0 c #447471",
"q c #457872",
"w c #4C7E77",
"e c #4D7F7A",
"r c #527F7D",
"t c #4E807A",
"y c #53857E",
"u c #5A7B80",
"i c #578A82",
"p c #5E8B86",
"a c #5E9088",
"s c #608A87",
"d c #61938B",
"f c #63978E",
"g c #65978E",
"h c #669890",
"j c #689A91",
"k c #6B9C94",
"l c #6C9C94",
"z c #6FA097",
"x c #70A299",
"c c #77A99E",
"v c #7BACA2",
"b c #7FB1A7",
"n c #83ACA6",
"m c #82B3A8",
"M c #83B4A9",
"N c #84B6AA",
"B c #87B7AC",
"V c #89BAAE",
"C c #8BBCB0",
"Z c #8CBEB1",
"A c #92C3B6",
"S c #94C5B8",
"D c #9ACBBE",
"F c #9BCBBF",
"G c #9DCCBF",
"H c #9CCEC0",
"J c #A1D3C5",
"K c #A7D5C9",
"L c #A9D9CB",
"P c #ABDBCC",
"I c #ADDECE",
"U c #AFDFD1",
"Y c #B1E1D3",
"T c #B3E4D4",
"R c #B6E6D6",
"E c #BBEBDA",
"W c #BDEDDC",
"Q c #BFF0DF",
"! c #C2F2DF",
"~ c #C3F4E3",
"^ c #C7F7E5",
"/ c #C7F8E5",
"( c #CAFBE7",
") c #CAFBE8",
"_ c #CDFEEB",
"` c #CEFEEC",
/* pixels */
"-;; .;;;;;*   ;;    .;;;;;;;;+      ;;*  -;;;    X;;;;;;;;;-   =;;;;-;;;;;;;;;;;  -;;;;o=;;;;;;;;;  ",
";-;; .;;;;;%   ;-    *;;-;;;;;X      ;;=  =;;-     ;;;;;;;;;;   ;;;;; ;;;;;;;;;;o  ;;;;;%.;;;;;@;:`O",
"D;;;;  ;;;;;%   ;@    ;;;@;;;;;       ;;=  .;;.     @;;;:;;;;;   ;;;;; ;;;;;;;;;;   ;;;;;X ;;;;; ;b`",
"`q;;;-  ;;;;;@  o;    .;;;@;;;;-       ;;-   ;-      .;;;;;;;;;. .;;;;%#;;;;;;;;;-   ;;;;;@ iy;;; ;)",
"#^y;;;-  ;;;;;@  #o    *;;@%;;;;%       ;;-   -%       ;;;;;;;;;  %;;;; -;;;;;;;;;    ;;:;;=@_x;;; :",
"  S;;;;=  -;;;;+        ;;; *;;;;@       ;;;   =        ;;;;;;;;;  ;;;;; ;;;;;;;;;;    ;;;;;-2`M;;;o",
"=  ;;;;;=  ;;;;;.        ;;% =;;;;.      X;;;      %=    *;;;;;;;*  ;;::+ ;;;;;=;;;@    ;;;:;;5`B;;;",
";-  ;;;;;*  -;;;;.       %;;  -;;;;       .;;;      --     ;;;;;;;+ @;::;  ;;;;-;g;;     ;;;;;;:`c;;",
";;;  =;;;;=  -;;;;.       ;;%  ;;;;-       @;;;      ;=     -;;;;;;+ %;:;;  ;;;;%;I;-     -;;;;;:Ce;",
";;;;  @;;;;%  -;;;;        ;;   ;;;;%       #;;;      ;*     .;;;;;;o ;;;;@ %;;;-.1Y:      *;;;;:;5;",
";;;;;   ;;;;.  -;;;;       @;@   ;;;;@       %;;;     .;%      =;;;;;. ;;;;  ;;;; %QU:       ;;;:;;;",
";;;;;;o  *;;;   -;;;;       --   .;;;;        %;;;     @;*      X;;;;- .;;;;  %;;; -~D@       -;;;;;",
";;;-;;;@  %;;;.  -;;;-       *    @;;;;        *;;;     #;*       @;;=  @;;;%  %;;+ ;R5        @;;;;",
";;;=;;;;%  @;;;.  -;;;-            %;;;-        =;;;     -;%        =    =;;;.  =;;  51-        X;;;",
";;;;@;;;;*  @;;;.  -;;;-            *;;;%        -;;;X    -;%             ;;;;   =;; @;;          ;;",
";;;;;o;;;;*  +;;;   -;;;=            -;;;@        -;;;X    -;@             ;;;;   =;- -;=          ;",
" ;;;;;.;;;;*   ;;;   -;;;*            ;;;;    @    ;;;;     ;;+             ;;:=   =;@ ;;X          ",
"  -;;;;.;;;;=   -;-   -;;;%            ;;;;   ;%    ;;;;     ;;.            .;e:+ - =; X;#          ",
"   *;:;;.;;;;%   -;-   -;;;@            ;;:=   -%    ;;;;X   .;;       .;    +;(<.=;.-; %;          ",
"    .;;;;.;;;;%   %;-   -;;;o           +;;:@   ;%   .;;;;    @;;       -;    @1`: -; -= --         ",
"      ;;;=.;;;;#   %--   -;:;.           %;;;   @-@   o;;;;    =;;       ;-    %H`; ;;    -         ",
"       -;;* ;;;;@   +-=   -::;.           =;;;   %;o   @;;;;    ;;;       ;-    =b_= ;;             ",
"        .;;  ;;;;@    =*   -;;;            -;;-   =;.   %;;;;    ;;-      @;#    -1(@+;;            ",
"          ;;  ;;;;o    %@   -;;;            ;;;@   -;    =;;;;    ;;=      -;.    ;:m =;;  -        ",
"           *%  ;;;;X         -;;;           X;;;    ;;    -;;;;   +;;%      ;y     ;;; ;;; ;;%      ",
"                ;;;;          -;;-           .;;;    ;-    ;;;;-   %;;@      Jf     ;;- ;;; -;;     ",
"                 ;;;;          ;;;=           %;;=   @;-    ;;;;=   -;;o     =)l     ;;%.;;- =;;@   ",
"                  ;;;;          ;;;%           -;;@   =;*   .;;;;*   ;;;      0`r    .;;.%;;* =;;;  ",
"    #              ;;;;          ;;;#  %   =#   ;;;    -;@   @;;;;%   ;;;      6`@    @;; ;;;% *;;; ",
";    *              ;;;-          ;;;o -=  .-=   ;;;    ;;    %;;;;@  @;;-     X15.    %;; ;;;@ %;;-",
";;    =#             ;;;-          ;;;  ;#   -;  .;;*    ;;    -;;;;+  %;;-     %:;     *;-.;;;@ -;;",
";;%    -;             ;;;=          ;;; @;@   -;. %;;o   @;;    ;;;;;.  -;;%     -;;     -;%%;;;  ;;",
";;;     -;@            -;;%          ;;; -;    -;% -;;    =;;   X;;;;;   ;;;+     ;;-     -;.;;;;  ;",
";;;;     -;;            ;;;%          ;;- ;;    -;- ;;-    ;;-   o;;;;;   ;;;.    +;;%     ;; ;;;;  ",
" ;;;      -;;      -;%   ;;;@         .;;-.;;    -;- ;;#    ;;%   #;;;;=  %;;;     *;;o     ;;+;;;; ",
"  ;;;      ;;;     @;;;@  -;;.         +;;*=;-    -;;@;;     ;;@   =;;;;%  -;t;     ;;;      --*;;;*",
";  ;;-      ;;;     -;;;-X ;;;          +;;@;;%    *;;=;;    %;;.   -;;;;o  ;:Z-     ;;;      @%;;;;",
";%  ;;@      ;;;     ;;;;;@ -;;          +;;.;;.    *;;;;*    -;;    ;;;;;X  :ED%    +;;;       X;;;",
";;%  ;;      .;;;.    ;;;;;- ;;;          %;;=;;     %;;;;.    ;;;   +;;;;=  @1`zo    -;;*        ;;",
";;;;  ;;      @;;;    X;;;;;;@-;;          =;;;;;     *;;;;     ;;-   %;;;;.  =_`:.    ;;;@        ;",
" ;;;;  ;       @;;;    o;;;;;;-;;;          -;-;;-     *;;;=    +;!S   =g;;%   ;_);     ;;;.        ",
"  ;;;;+  %;.    %;;-    #;;;;;;;;;-          -;;;;@     *;;;+    *1_%   ^^;-   .;8;;    %;;;     *# ",
";# ;;;;*  %;-    =;;@    =;;;;;;;;;-          -;;;;.     *;;;@    ;W_&  O_/-    @;;;=    ;;;;     ;;",
";;- =;;;-  .;;%   -;;.    ;;;;;;;;;;%          ;;;;;      =;;;#    ;__   O_p     =;;;#    ;;;=    %;",
"*;;;  ;;;;   ;;;.  ;;;     ;;;;;;;;;;#          ;;;;;      *;;;%   +1_Y   @       ;;;;.   @;;;@    @",
" %;;;+ -;;@   %;;-  ;;-     ;;;;;;;;;;#          ;;;;=      =;;;=   %_`-           ;;;;X   -;;;.    ",
"  =:;;% %;;*   .;;;o ;;%     ;;;-;;;;;;=         X;;;;@      =j1;-   ;`P#          @;;;;    ;;;;    ",
"   %;;;-  ;;-    ;;;-.;;.     ;;;#;;;;;;;         +;;;;.      pE1;-   T`;.          =;;;-   .;;;;   ",
"    %;;;;  *;;    -;;;@;;      ;;;.=;;;;;;.        %;;;;       NW3;-  +`R;           ;;;;%   %;;;-  ",
"     #;;;;.  ;@    %;;;-;;      ;;;.@;;;;;;.        -;;;;       !`8;-  s`:;          .;;;;@   ;;;;- ",
"      @;;;;%        @;;;;;*      ;;;. -;;;;;         ;;;;-       (`<;*  _/;-          @;;;;.   ;;;;;",
";      @;;;;=        X;;;;;.      -;;+ @;;;;;         ;;;;*       (_;;@  ;;;%          -;;;;    ;;;;",
";;      o;;;;;         ;;;;;       #;;@  =;;;;         :w;;@  =    n;;;  .;;;+          ;;;;-   .;;;",
";;;      .;;;;;.        -;;;;.       ;;@   ;;;;        9_1;;@ *y     -;;  %:;;          .;;;;*   +;;",
";;;;%     .;;;;;@        *;;;;@       ;;@   .;;;        L_:;;@ Y^     =;=  ;:;;          %;;;;@   .;",
" ;-;;;     .;;;;;*        #;;;;@       *;%    .;;       X(_;;;. _T     @-   ;;;-          -;;;;.    ",
"  ;;=;%      ;;;;;*        +;;;;@       .-*              $__;;;. ;-     @   .;;;%          ;;;;;o   ",
"   ;;*;.      ;;;;;%         ;;;;.        @              Xn`);;;..;-         *;;;.      +  o;;;;;+  ",
"    -;-        ;;;;;.         =;;;                        +D`A;;;.#;*         ;;;;X     ;   %;;;;;o ",
"     -;;+       =;;;;          .;;;                u       +R`v;;- ->%         ;;;;     ;;   -;;;;;+",
";     %;;=       @;;;-  %        ;;;               __        0!v;;  >;+        @;;;=     ;-   ;;;;;;",
";=     .;;;        -;;+ -%        %;%              O_~        3V;;%  ;;         =;;;@    %;#   ;;;;;",
";;=      ;;;@       .;;  ;o        .+ =J^           O~;        #%*   .;;         ;;;;.    ;;    ;;;;",
";;;;      ;;;*        =  =;            4`A%           -;o             *;;        .;;;;     ;;    ;;;",
";;;;;      -;;-           ;;             %;;%          -;#             ;;-        #;;;-    -;;   .;;",
";;;;;;o     =;;;.          ;;              -;;*         -;=             ;;%        -;;;*    ;;;   .;",
"-;;;;;;@     %;;;@         K_;              .;;;-        -;-            .;;@        ;;;;@   %;;;   .",
" -;;;;;;=     @;;;=         __;               +;;;-       =;;            %;;.       o;;;;.   ;;;-   ",
"  ;;;;;;;-      ;;;;         `)-                *;;;*      =;;            -;;        *;;;;   o;;;@  ",
"   ;;;::;;;     .;;;;.       ,_x-                 -;;;%     *:;.           ;:;        ;;;;=   +;;;. ",
"    ;;;;;;;;.     ;;;;@       7(y=                 @;;;;@    *;;@          +;;-       X;;;;@   .;;; ",
"    @;;;;;;;;@     ;:;;*       4)a=                  =;;;;.   %;;%          %;;%       #;;;;.   %;;;",
"     @;;;;;;;;%     tKk;-       5d;*                  o;;;;;o  @;;=          -;;+       -;;;;    -;;",
"-     =;;;;1;:;%     0_Y;;       -;;%                   %;;;;-  #;;-          ;;;        ;;;;-    ;;",
";-     @;;+;;;:;=     e!G;;.      ;;;%           ;;@      ;;;;;% %;;;         .;;;       +;;;;%   X;",
";;;      ;;@;;;;;=     -5;;;@     +;;;-          -;;:#     @;;;;;+%;;;         %;;;       *;;;;o   %",
";;;;     @;%+;;;;;-     =;;;;*     %;;;;#         ;;;;-      -;;;;-#;;;         ;;;=       ;;;;;X . ",
"%;;;;%    .* +;;;;;-     *;;;;-     -;;;;-        .;;;;-      @;;;;;-;;;.        ;;;%      .;;;;;   ",
" %;;;;;       .;;y:;-     %;;;;;     -;;;;;+       =;;;;-       ;;;;;;;;;.       .;;;+    = #;;;;=  ",
"  @;;;;;       .;;):;;     %;;;;;.    ;;;-;;-       -;;;;-       %;;;;;;;;.       *;;;    ;; -;:;;% ",
"   .;;;;;+      .;;Z;;;     %;;;;;+    ;;;%-;;.      ;;;;;=       .;;;;;;;;@       ;;;;    ;; ;;;;;o",
"@    -;;;;=       ;;;;;-     %;;;;;#    ;;; %;;*     X;;;;;*        -;;;;;;;%       ;;;-    ;;o;;;;;",
";.    @;;;;;+      -;;;;@     @;;;;;%    -;- .;;;     .;;;;;%        o;;;;;;;%      +;;;*   @;;%;;;;",
";;.     ;;:;;-      =;;;;      @;;;;;=    -;*  -;;%    .;;;;;@         %;;;;;;=      =;;;@   -;;-;;;",
";;;      =:WS;;@     @;;;;      @;;;;;=    -;.  -;;;    .;;;;;@          =;;;;;=      ;;;;.   ;;;;;;",
";;;;      @;h:;;-      %;;%      +;;;;;-    --   @;;;@   +;;;;;o  *-       -;;;:-      ;;;;    ;;;;;",
";;;;;       ;;;;;;@      ;;       .;;;;;-    %.    ;;;-   @;;;;;.  ;;        ;;;;-     @;;;;   .;;;;",
";;;;;;       =;;;;;=               .;;;;;;          -;;;.  %;;;;;X  ;=        -;;;-     =;;;=   %;;;",
" %;;;;;X      @;;;;;;.              .;;;;;;          =;;;-  %;;;;;  *;@        -;;;;     ;;;;%   ;;;",
";  ;;>:;#       %;;;;;@              X;;;;;;    *     @;;;;. *;;;;-  ;;         ;;;;;    .;;;;+   ;;",
";-  ;vG-;-   =%   o;;;;@               ;;;;;;.  ;-     .;;;;* =;;;;- %;;   -*    ;;;;-    #;;;;   @;",
";;*  -JL#;-  .;;-   .;;;+               ;;;;;;.  ;;@.    ;;;;;.-;;;;= ;;;  %;-@   ;;;;;    -;;;;   ;",
":;;#  ;SJ.=-  -;;;=    ;;+    -;.        -;;;;;. .;;-    @;;;;;%-;;;;* ;;;  =;;;* .;;;;-    ;;;;-   ",
" ;1;@  ;j< X   ;;;;;o    =@    -;-        -;;;;;+ =;;;    ;;;;;;;;;;;;%-;;-  -;;;# o;;;;-   @;;;;%  ",
" *3;;%  ;;;     ;;;;;-          @;;-       -;;;;;@ ;;;;    ;;;;;;;;;;;;=;;;@  -;;;@ @;;;;;   ;;;;;@ ",
"  ;l;;% +;;-    .;;;;;-.          ;;;-      =;;;;;@ ;;;-    ;;;;;;;;;;;;;;;;  .;;;;. -;;;;;   ;;;;;.",
"  Xxx;;= %;;%    *;;;;;;@          =;;;-     =;;;;;@ ;;;-   %;;;;;;;;;;;;;;;;  %;;;#  ;;;;;;  =;;;;;",
";  .5:;;- *;;.    ;;;;;;;=          o;;;;-    %;;;;;#*;;;.   ;;;;;;;;;;;;;;;;;  -;;;   ;;;;;;  ;;;;;",
";;  +;;;;* -;;     ;;;;;;;;           =;;;;%   %;;;;;%-;;;    ;;;;;;;;;;;;;;;;%  ;;;;  @;;;;;;  ;;;;",
";;;  %;;;;. ;;;     ;;;;;;;;+           ;;;;%   %;;;;;%;;;-   +;;;;;;;;;;;;;;;;   ;;;*  ;;:;;;;.-;;;"
};
