/* XPM */
static char *_a2c0db03848456efe3ffb33e16007dcHsU2jjTVeWqTOzjd[] = {
/* columns rows colors chars-per-pixel */
"100 100 81 1 ",
"  c #2E2F6B",
". c #2F316F",
"X c #30326C",
"o c #34396F",
"O c #2F3574",
"+ c #303575",
"@ c #353A74",
"# c #3A3C73",
"$ c #303779",
"% c #313A7D",
"& c #3E4376",
"* c #3B427B",
"= c #474B77",
"- c #434C7C",
"; c #4C4E78",
": c #4A517E",
"> c #323C81",
", c #354285",
"< c #394383",
"1 c #384883",
"2 c #374788",
"3 c #374888",
"4 c #394B8B",
"5 c #3E5084",
"6 c #3B518E",
"7 c #3E588E",
"8 c #3D5591",
"9 c #3F5993",
"0 c #414A86",
"q c #444E87",
"w c #424F8A",
"e c #4B5281",
"r c #4A5186",
"t c #4D5785",
"y c #4E5982",
"u c #4C5A87",
"i c #4A5289",
"p c #475A89",
"a c #4C5A89",
"s c #505A82",
"d c #505C83",
"f c #565C81",
"g c #505C84",
"h c #50578A",
"j c #515B8B",
"k c #555C8B",
"l c #405B93",
"z c #405B95",
"x c #405C95",
"c c #576286",
"v c #556288",
"b c #59608D",
"n c #5C638D",
"m c #5D6A8D",
"M c #536091",
"N c #5F6690",
"B c #5F6E90",
"V c #60668D",
"C c #606F8E",
"Z c #636A91",
"A c #617291",
"S c #637493",
"D c #657492",
"F c #667995",
"G c #647799",
"H c #667B9B",
"J c #6A7E98",
"K c #6B7F9D",
"L c #757A96",
"P c #868B9C",
"I c #ADAFA9",
"U c #B2B4AB",
"Y c #B7B9AC",
"T c #B9B8A9",
"R c #C0C0AE",
"E c #C4C4B0",
"W c #E9E5B7",
"Q c #EAE8BC",
"! c #EDEBBD",
"~ c #FFFBC2",
"^ c #FFFCC2",
/* pixels */
">>>>>>>>>>>>>>>>>>>>>>>>>>>>>>>>>>>>>>>>>>>>>>>>>>>>>>>>>>>>>>>>>>>>>>>>>>>>>>>>>>>>>>>>>>>>>>>>>>>>",
">>>>>>>>>>>>>>>>>>>>>>>>>>>>>>>>>>>>>>>>>>>>>>>>>>>>>>>>>>>>>>>>>>>>>>>>>>>>>>>>>>>>>>>>>>>>>>>>>>>>",
">>>>>>>>>>>>>>>>>>>>>>>>>>>>>>>>>>>>>>>>>>>>>>>>>>>>>>>>>>>>>>>>>>>>>>>>>>>>>>>>>>>>>>>>>>>>>>>>>>>>",
">>>>>>>>>>>>>>>>>>>>,,,2>>>>>>>>>>>>>>>>>>>>>>>>>>>>>>>>>>>>>>>>>>>>>>>>>>>>>>>>>>>>>>>>>>>>>>>>>>>>",
">>>>>>>>>>>>>>>>>>>>,,,2>>>>>>>>>>>>>>>>>>>>>>>>>>>>>>>>>>>>>>>>>>>>>>>>>>>>>>>>>>>>>>>>>>>>>>>>>>>>",
">>>>>>>>>>>>>>>>>,,,,,,23>>>>>>>>>>>>>>>>>>>>>>>>>>>>>>>>>>>>>>>>>>>>>>>>>>>>>>>>>>>>>>>>>>>>>>>>>>>",
">>>>>>>>>>>>>>>>>>,,,,,233>>>>>>>>>>>>>>>>>>>>>>>>>>>>>>>>>>>>>>>>>>>>>>>>>>>>>>>>>>>>>>>>>>>>>>>>>>",
">>>>>>>>>>>>>>>>>>>,,,wM34,>>>>>>>>>>>>>>>>>>>>>>>>>>>>>>>>>>>>>>>>>>>>>>>>>>>>>>>>>>>>>>>>>>>>>>>>>",
">>>>>>>>>>>>>>>>>>>>,222346>>>>>>>>>>>>>>>>>>>>>>>>>>>>>>>>>>>>>>>>>>>>>>>>>>>>>>>>>>>>>>>>>>>>>>>>>",
">>>>>>>>>>>>>>>>>>>>>2233466>>>>>>>>>>>>>>>>>>>>>>>>>>>>>>>>>>>>>>>>>>>>>>>>>>>>>>>>>>>>>>>>>>>>>>>>",
">>>>>>>>>>>>>>>>>>>>>>3334662>>>>>>>>>>>>>>>>>>>>>>>>>>>>>>>>>>>>>>>>>>>>>>>>>>>>>>>>>>>>>>>>>>>>>>>",
">>>>>>>>>>>>>>>>>>>>>>>334668>>>>>>>>>>>>>>>>>>>>>>>>>>>>>>>>>>>>>>>>>>>>>>>>>>>>>>>>>>>>>>>>>>>>>>>",
">>>>>>>>>>>>>>>>>>>>>>>>446688>>>>>>>>>>>>>>>>>>>>>>>>>>>>>>>>>>>>>>>>>>>>>>>>>>>>>>>>>>>>>>>>>>>>>>",
">>>>>>>>>>>>>>>>>>>>>>>>,466883>>>>>>>>>>>>>>>>>>>>>>>>>>>>>>>Z>>>>>>>>>>>>>>>>>>>>>>>>>>>>>>>>>>>>>",
">>>>>>>>>>>>>>>>>>>>>>>>>,46888>>>>>>>>>>>>>>>>>>>>>>>>>>>>>>><>>>>>>>>>>>>>>>>>>>>>>>>>>>>>>>>>>>>>",
">>>>>>>>>>>>>>>>>>>>>>>>>>,66888>>>>>>>>>>>>>>>>>>>>>>>>>>>>>>>>>>>>>>>>>>>>>>>>>>>>>>>>>>>>>>>>>>>>",
">>>>>>>>>>>>>>>>>>>>>>>>>>>268883>>>>>>>>>>>>>>>>>>>>>>>>>>>>>>>>>>>>>>>>>>>>>>>>>>>>>>>>>>>>>>>>>>>",
">>>>>>>>>>>>>>>>>>>>>>>>>>>>38889>>>>>>>>>>>>>>>>>>>>>>>>>>>>>>>>>>,>>>>>>>>>>>>>>>^L>>>>>>>>>>>j>>>",
">>>>>>>>>>>>>>>>>>>>>>>>>>>>>48898>>>>>>>>>>>>>>>>>>>>>>>>>>>>>>>>>>,>>>>>>>>>>>>>>q>>>>>>>>>>><k>>>",
">>>>>>>>>>>>>>>>>>>>>>>>>>>>>>68994>>>>>>>>>>>>>>>>>>>>>>>>>>>>>>>>>,,>>>>>>>>>>>>>>>>>>>>>>>>>>>>>>",
">>>>>>>>>>>>>>>>>>>>>>>>>>>>>>>8999>>>>>>>>>>>>>>>>>>>>>>>>>>>>>>>>>>,,>>>>>>>>>>>>>>>>>>>>>>>>>>>>>",
">>>>>>>>>>>>>>>>>>>>>>>>>>>>>>>>9999>>>>>>>>>>>>>>>>>>>>>>>>>>>>>>>>>,,>>>>>>>>>>>>>>>>>>>>>>>>>>>>>",
">>>>>>>>>>>>>>>>>>>>>>>>>>>>>>>>>99z,>>>>>>>>>>>>>>>>>>>>>>>>>>>>^Q>>>,,>>>>>>>>>>>>>>>>>>>>>>>>>>>>",
">>>>>>>>>>>>>>>>>>>>>>>>>>>>>>>>>,9x6>>>>>>>>>>>>>>>>>>>>>>>>>>>>>>>>>,,>>>>0>>>>>>>>>>>>>>>>>>>>>>>",
">>>>>>>>>>>>>>>>>>>>>>>>>>>>>>>>>>6xz,>>>>>>>>>>>>>>>>>>>>>>>>>>>>>>>>>22>>>>>>>>>>>>>>>>>>>>>>>>>>>",
">>>>>>>>>>>>>>>>>>>>>>>>>>>>>>>>>>>9x8>>>>>>>>>>>>>>>>>>>>>>>>>>>>>>>>>>22>>>>>>>>>>>>>>>>>>>>>>>>>>",
">>>>>>>>>>Z>>>>>>>>>>>>>>>>>>>>>>>>>9x6>>>>>>>>>>>>>>>>>>>>>>>>>>>>>>>>>23>>>>>>>>>>>>>>>>>>>>>>>>>>",
">>>>>>>>>>>>>>>>>>>>>>>>>>>>>>>>>>>>>xx3>>>>>>>>>>>>>>>>>>>>>>>>>>>>>>>>>33>>>>>>>>>>>>>>>>>>>>>>>>>",
">>>>>>>>>>>>>>>>>>>>>>>>>>>>>>>>>>>>>2xx,%%%%%%%%%>>>>>>>>>>>>>>>>>>>>>>>,4,>>>>>>>>>>>>>>>>>>>>>>>>",
">>>>>>>>>>>>>>>>>>>>>>>>>>>>>>>>>>>>>>8xx$$+%%%%%%%%>>>>>>>>>>>>>>>>>>>>>>46>>>>>>>>>>>>>>>>>>>>>>>>",
">>>>>>>>>>>>>>>>>>>>>>>>>>>>>>>>>>>>>>%9x9O+%%%%%%%%>>>>>>>>>>>>>>>>>>>>>>>63>>>>>>>>>>>>>>>>>>>>>>>",
">>>>>>>>>>>>>>>>>>>>>>>>>>>>>>>>>>>>>>>%9l+.O$$$%%%%%%>>>>>>>>>>>>>>>>>>>>>88>>>>>>>>>>>>>>>>>>>>>>>",
">>>>>>>>>>>>>>>>>>>>>>>>>>>>>>>>>>>>>>%%%ll O+++$$$%%%%>>>>>>>>>>>>>>>>>>>>>98>>>>>>>>>>>>>>>>>>>>>>",
">>>>>>>>>>>>>>>>>>>>>>>>>>>>>>>>>>>>>%%%%197XOO+++$$%%%%>>>>>>>>>>>>>>>>>>>>69>>>>>>>>>>>>>>>>>>>>>>",
">>>>>>>>>>>>>>>>>>>>>>>>>>>>>>>>>>>>>>%%%$+5o++O++$$$%%%>>>>>>>>>>>>>>>>>>>>>9z>>>>>>>>>>>>>>>>>>>>>",
">>>>>>>>>>>>>>>>>>>>>>>>>>>>>>>>>>>>>>%%%$O@5-=&#O+$$%%%%>>>>>>,>>>>>>>>>>>>>,x,>>>>>>>>>>>>>>>>>>>>",
">>>>>>>>>>>>>>>>>>>>>>>>>>>>>>>>>>>>>>%%$++&-pcs;+O$$%%%%>>>>>>>>>>>>>>>>>>>>>xx>>>>>>>>>>>>>>>>>>>>",
">>>>>>>>>>>>>>>>>>>>>>>>>>>>>>>>>>>>>>%%$++-gAFCy+O$$$%%>>>>>>>>>>>>>>>>>>>>>>>x,>>>>>>>>>>>>>>>>>>>",
">>>>>>>>>>>>>>>>>>>>>>>>>>>>>>>>>>>>>%%%%$+&vFJDf++$%%%%>>>>>>>>>>>>>>>>>>>>>>>9x>>>>>>>>>>>>>>>>>>>",
">>>>>>>>>>>>>>>>>>>>>>>>>>Z>>>>>>>>>>>%%%$O#dBSm:+$$$%%%>>>>>>>>>>>>>>>>>>>>>>>>z2>>>>>>>>>>>>>>>>>>",
">>>>>>>>>>>>>>>>>>>>>>>>>>>>>>>>>>>>>>%%%$++----+$$$%%%%>>>>>>>>>>>>>>>>>>>>>>>>3z>%%%%>>>>>>>>>>>>>",
">>>>>>>>UQ>>>>>>>>>>>>>>>>>>>>>>>>>>>>%%%%$++OO+$$$%%%%%>>>>>>>>>>>>>>>>>>>>>>>>%8%%%%%%%%>>>>>>>>>>",
">>>>>>>>>>>>>>>>>>>>>>>>>>>>>>>>>>>>>>>%%%%%%$$$$%%%%%%%>>>>>>>>>>>>>>>>>>>>>>>%%%rW%%%%%%%>>>>>>>>>",
">>>>>>>>>>>>>>>>>>>>>>>>>>>>>>>>>>>>>>>%%%%%%%%%%%%%%%>>>>>>>>>>>>>>>>>>>>>>>>%%%%%%%%%%%%%%>>>>>>>>",
">>>>>>>>>>>>>>>>>>>>>>>>>>>>>>>>>>>>>>>>>%%%%%%%%%%%%%><>>>>>>>>>>>>>>>>>>>>>>%%%%%%%%%%%%%%%>>>>>>>",
">>>>>>>>>>>>>>>>>>>>>>>>>>>>>>>>>>>>>>>>>%%%%%%%%%%%%>>Z>>>>>>>>>>>>>>>>>>>>>%%%%%%%%%%%%%%%%>>>>>>>",
">>>>>>>>>>>>>>>>>>>>>>>>>>>>>>>>>>>>>>>>>>%%%%%%%%%%>>>>>>>>>>>>>>>>>>>>>>>>>%%%%%%%$$$%%%%%%%>>>>>>",
">>>>>>>>>>>>>>>>>>>>>>>>>>>>>>>>>>>>>>>>>>>%>%%>%>%>>>>>>>>>>>>>>>>>>>><Z>>>>%%%%%%$*a*$%%%%%>>>>>>>",
">>>>>>>>,>>>>>>>>>>>>>>>>>>>>>>>>>>>>>>>>>>>>>>>>>>>>>>>>>>>>>>>>>>>>>>>>>>>%%%%%%$#tHe%%%%%%%>>>>>>",
">>>>>>>>,,>>>>>>>>>>>>>>>>>>>>>>>>>>>>>>>>>>>>>>>>>>>>>>>>>>>>>>>>>>>>>>>>>>%%%%%%$+*-&$%%%%%%>>>>>>",
">>>>>>>>>,,>>>>>>>>>>>>>>>>>>>>>>>>>>>>>>>>>>>>>>>>>>>>>>>>>>>>>>>>>>>>>>>>>>%%%%%%$$$$$%%%%%>>>>>>>",
">>>>>>>>>,,>>>>>q>>>>>>>>>>>!Y>>>>>>>>>>>>>>>>>>>>>>>>>>>>>>>>>>>>>>>>>>>>>>>%%%%%%%$$$%%%%%%%>>>>>>",
">>>>>>>>>>,2>>>>q>>>>>>>>>>>b>>>>>>>>>>>>>>>>>>>>>>>>>>>>>>>>>>>>>>>>>>>>>>>>%%%%%%$%%%%%%%%%>>>>>>>",
">>>>>>>>>>>22>>>>>>>>>>>>>>>>>>>>>>>>>>>>>>>>>>>>>>>>>>>>>>>>>>>>>>>>>>>>>>>>>%%%%%%%%%%%%%%%>>>>>>>",
">>>>>>>>>>>,22>>>>>>>>>>>>>>>>>>>>>>>>>>>>>>>>>>>>>>>>>>>>>>>>>>>>>>>>>>>>>>>>%%%%%%%%%%%%%%>>>>>>>>",
">>>>>>>>>>>>222>>>>>>>>>>>>>>>>>>>>>>>>>>>>>>>>>>>>>>>>>>>>>>>>>>>>>>>>>>>>>>>>%%%%%%%%%%%%%>>>>>>>>",
">>>>>>>>>>>>>23>>>>>>>>>>>>>>>>>>>>>>>>>>>>>>>>>>>>>>>>>>>>>>>>>>>>>>>>>>>>>>>>>>%%%%%%%%%>>>>>>>>>>",
">>>>>>>>>>>>>>33>>>>>>>>>>>>>>>>>>>>>>>>>>>>>>>>>>>>>>>>>>>>>>>>>>>>>>>>>>>>>>>>>>>>%%%%>>>>>>>>>>>>",
">>>>>h0>>>>>>>233>>>>>>>>>>>>>>>>>>>>>>>>>>>>>>>>>>>>>>>>>>>>>>>>>>>>>>>>>>>>>>>>>>>>>>>>>>>>>>>>>>>",
">>>>>IE>>>>>>>>343>>>>>>>>>>>>>>>>>>>>>>>>>>>>>>>>>>>>>>>>>>>>>>>>>>>>>>>>>>>>>>>>>>>>>>>>>>>>>>>>>>",
">>>>>>>>>>>>>>>>46,>>>>>>>>>>>>>>>>>>>>>>>>>>>>>>>>>>>>>>>>>>>>>>>>>>>>>>>>>>>>>>>>>>>>>>>>>>>>>>>>>",
">>>>>>>>>>>>>>>>,68>>>>>>>>>>>>>>>>>>>>>>>>>>>>>>>>>>>>>>>>>>>>>>>>>>>>>>>>>>>>>>>>>>>>>>>>>>>>>>>>>",
">>>>>>>>>>>>>>>>>688>>>>>>>>>>>>>>>>>>>>>>>>>>>>>>>>>>>>>>>>>>>>>>>>>>>>>>>>>>>>>>>>>>>>>>>>>>>>>>>>",
">>>>>>>>>>>>>>>>>>896>>>>>>>>>>>>>>>>>>>>>>>>>>>>>>>>>>>>>>>>>>>>>>>>>>>>>>>>>>>>>>>>>>>>>>>>>>>>>>>",
">>>>>>>>>>>>>>>>>>>9z>>>>>>>>>>>>>>>>>>>>>>>>>>>>>>>>>>>>>>>>>>>>>>>>>>>>>>>>>>>>>>>>>>>>>>>>>>>>>>>",
">>>>>>>>>>>>>>>>>>>,z9>>>>>>>>>>>>>>>>>>>>>>>>>>>>>>>>>>>>>>>>>>>>>>>>>>>>>>>>>>>>>>>>>>>>>>>>>>>>>>",
">>>>>>>>>>>>>>>>>>>>4x9>>>>>>>>>>>>,Z>>>>>>>>>>>>>>>>>>>>>>>>>>>>>>>>>>>>>>>>>>>>>>>>>>>>>>>>>>>>>>>",
">>>>>>>>>>>>>>>>>>>>>9x3>>>>>>>>>>>>>>>>>>>>>>>>>>>>>>>>>>>>>>>>>>>>>>>>>>>>>>>>>>>>>>>>>>>>>>>>>>>>",
">>>>>>>>>>>>>>>>>>>>>>zx>>>>>>>>>>>>>>>>>>>>>>>>>>>>>>>>>>>>>>>>>>>>>>>>>>>>>>>>>>>>>>>>>>>>>>>>>>>>",
">>>>>>>>>>>>>>>>>>>>>>>xz>>>%%%%%%b>>>>>>>>>>>>>>>>>>>>>>>>>>>>>>>>>>>>>>>>>>>>>>>>>>>>>>>>>>>>>>>>>",
">>>>>>>>>>>>>>>>>>>>>>>2x8%%%%%%%%TV%%>%>>>>>>>>>>>>>>>>>>>>>>>>>>>>>>>>>>>>>>>>>>>>>>>>>>>>>>>>>>>>",
">>>>>>>>>>>>>>>>>>>>>>>>6x,%%%%%%%%%%%%>>>>>>>>>>>>>>>>>>>>>>>>>>>>>>>>>>>>>>>>>>>>>>>>>>>>>>>>>>>>>",
">>>>>>>>>>>>>>>>>>>>>>>%%9x%%%$$$%%%%%%%>>>>>>>>>>>>>>>>>>>>>>>>>>>>>>>>>>>>>>>>>>>>>>>>>>>>>>>>>>>>",
">>>>>>>>>>>>>>>>>>>>>>>%%%xz$$+$$$$$%%%%%>>>>>>>>>>>>>>>>>>>>>>>>>>>>>>>>>>>>>>>>>>>>>>>>>>>>>>>>>>>",
">>>>>>>>>>>>>>>>>>>>>>%%%%%x3+OOO+++%%%%%>>>>>>>>>>>>>>>>>>>>>>>>>>>>>>>>>>>>>>>>>>>>>>>>>>>>>>>>>>>",
">>>>>>>>>>>>>>>>>>>>>%%%%$$,9++++O++$$%%%%>>>>>>>>>>>>>>>>>>>>>>>>>>>>>>>>>>>>>>>>>>>>>>>>>>>>>>>>>>",
">>>>>>>>>>>>>>>>>>>>>%%%%$++69+++++++$%%%%>>>>>>>>>>>>>>>>>>>>>>>>>>>>>>>>>>>>>>>>>>>>>>>>>>>>>>>>>>",
">>>>>>>>>>>>>>>>>>>>>%%%$$O++96OOO++++$%%%%>>>>>>>>>>>>>>>>>>>>>>>>>>>>>>>>>>>>>>>>>>>>>>>>j>>>>>>>>",
">>>>>>>>>>>>>>>>>>>>%%%%$+O+OO9OOOO+O+$%%%>>>>>>>>>nj>>>>>>>>>>>>>>>>>>>>>>>>>>>>>>>>>>>>>>>>>>>>>>>",
">>>>>>>>>>>>>>>>>>>>%%%%$+++OO@@++O++O+%%%%>>>>>>>>>>>>>>>>>>>>>>>>>>>>>>>>>>>>>>>>>>>>>>>>>>>>>>>>>",
">>>>>>>>>>>>>>>>>>>>%%%%$O++OOuGu@OO+O$%%%%>>>>>>>>>>>>>>>>>>>>>>>>>>>>>>>>>>>>>N>>>>>>>>>>>>>>>>>>>",
">>>>>>>>>>>>>>>>>>>>%%%%$+++OOjKc#O++O$%%%%>>>>>>>>>>>>>>>>>>>>>>>>>>>>>>>>>>>>>i>>>>>>>>>>>>>>>>>>>",
">>>>>>>>>>>>>>>>>>>>%%%%$+O+O+-u:#O+++$%%%%%>>>>>>>>>>>>>>>>>>>>>>>>>>>>>>>>>>>>>>>>>>>>>>>>>>>>>>>>",
">>>>>>>>>>>>>>>>>>>>>%%%$++++O+#@++O+O$%%%%%>>>>>>>>>>>>>>>>>>>>>>>>>>>>>>>>>>>>>>>>>>>>>>>>>>>>>>>>",
">>>>>>>>>>n>>>>>>>>>>%%%%$++O+OOO+OO+$$%%%>>>>>>>>>>>>>>>>>>>>>>>>>>>>>>>>>>>>>>>>>>>>>>>>>>>>>>>>>>",
">>>>>>>>>>~>>>>>>>>>>>%%%%$+++OOO++O$$%%%>>>>>>>>>>>>>>>>>>>>>>>>>>>>>>>>>>>>>>>>>>>>>>>>>>>>>>>>>>>",
">>>>>>>>>>>>>>>>>>>>>>%%%%$$+O+++O+$$%%%%>>>>>>>>>>>>>>>>>>>>>>>>>>>>>>>>>>>>>>>>>>>>>>>>>>>>>>>>>>>",
">>>>>>>>>>>>>>>>>>>>>>%%%%%$$$+++$$$%%%%%>>>>>>>>>>>>>>>>>>>>>>>>>>>>>>>>>>>>>>>>>>>>>>>>>>>>>>>>>>>",
">>>>>>>>>>>>>>>>>>>>>>>%%%%%%$$$$$%%%%%%>>>>>>>>>>>>>>>>>>>>>>>>>>>>>>>>>>>>>>>>>>>>>>>>>>>>>>>>>>>>",
">>>>>>>>>>>>>>>>>>>>>>>>%%%%%%%%%%%%%%%>>>>>>>>>>>>>>>>>>>>>>>>>>>>>>>>>>>>>>>>>><j>>>>>>>>>>>>>>>>>",
">>>>>>>>>>>>>>>>>>>>>>>>>%%%%%%%%%%%%%>>>>>>>>>>>>>>>>>>>>>>>>>>>>>>>>>>>>>>>>>>>PR>>>>>>>>>>>>>>>>>",
">>>>>>>>>>>>>>>>>>>>>Nq>>>>>%%%%%%%%>>>>>>>>>>>>>>>>>>>>>>>>>>>>>>>>>>>>>>>>>>>>>>>>>>>>>>>>>>>>>>>>",
">>>>>>>>>>>>>>>>>>>>>>>>>>>>>>>>>>>>>>>>>>>>>>>>>>>>>>>>>>>>>>>>>>>>>>>>>>>>>>>>>>>>>>>>>>>>>>>>>>>>",
">>>>>>>>>>>>>>>>>>>>>>>>>>>>>>>>>>>>>>>>>>>>>>>>>>>>>>>>>>>>>>>>>>>>>>>>>>>>>>>>>>>>>>>>>>>>>>>>>>>>",
">>>>>>>>>>>>>>>>>>>>>>>>>>>>>>>>>>>>>>>>>>>>>>>>>>>>>>>>>>>>>>>>>>>>>>>>>>>>>>>>>>>>>>>>>>>>>>>>>>>>",
">>>>>>>>>>>>>>>>>>>>>>>>>>>>>>>>>>>>>>>>>>>>>>>>>>>>>>>>>>>>>>>>>>>>>>>>>>>>>>>>>>>>>>>>>>>>>>>>>>>>",
">>>>>>>>>>>>>>>>>>>>>>>>>>>>>>>>>>>>>>>>>>>>>>>>>>>>>>>>>>>>>>>>>>>>>>>>>>>>>>>>>>>>>>>>>>>>>>>>>>>>",
">>>>>>>>>>>>>>>>>>>>>>>>>>>>>>>>>>>>>>>>>>>>>>>>>>>>>>>>>>>>>>>>>>>>>>>>>>>>>>>>>>>>>>>>>>>>>>>>>>>>",
">>>>>>>>>>>>>>>>>>>>>>>>>>>>>>>>>>>>>>>>>>>>>>>>>>>>>>>>>>>>>>>>>>>>>>>>>>>>>>>>>>>>>>>>>>>>>>>>>>>>",
">>>>>>>>>>>>>>>>>>>>>>>>>>>>>>>>>>>>>>>>>>>>>>>>>>>>>>>>>>>>>>>>>>>>>>>>>>>>>>>>>>>>>>>>>>>>>>>>>>>>"
};
