/* XPM */
static char *_a3bcaaaf288459fcdbf569617989dbagTj7eZcretaiDuRe[] = {
/* columns rows colors chars-per-pixel */
"46 46 138 2 ",
"   c #FEE1B8",
".  c #FCE0B7",
"X  c #FDE0B7",
"o  c #FCDFB7",
"O  c #F9DDB5",
"+  c #FDE0B8",
"@  c #FBDEB6",
"#  c #F8DCB5",
"$  c #F5DAB2",
"%  c #D4C692",
"&  c #FDDEB5",
"*  c #BC946F",
"=  c #A57855",
"-  c #FADDB5",
";  c #FADEB6",
":  c #AA7E5B",
">  c #FCDFB6",
",  c #F7DBB4",
"<  c #FFFFFE",
"1  c #FFFEFD",
"2  c #FFFDFC",
"3  c #EB2D2C",
"4  c #FFFBF8",
"5  c #FFFEFC",
"6  c #FFFAF9",
"7  c #EB2B2A",
"8  c #EC3D3D",
"9  c #FFFDFD",
"0  c #FEFEFC",
"q  c #FEE4C0",
"w  c #FBDFB6",
"e  c white",
"r  c #EC3939",
"t  c #EA2828",
"y  c #EB2B2B",
"u  c #EB3434",
"i  c #FFFCFC",
"p  c #EA2929",
"a  c #ED443E",
"s  c #EC3F3F",
"d  c #FEF7EC",
"f  c #FADDB6",
"g  c #FEF8F8",
"h  c #EB2929",
"j  c #EB2E2C",
"k  c #EA2A29",
"l  c #EC4141",
"z  c #FFFEFB",
"x  c #FEE7C6",
"c  c #FEFBFB",
"v  c #EB2A29",
"b  c #EA2827",
"n  c #EA2928",
"m  c #EA2B2A",
"M  c #EB2A2A",
"N  c #EC3E3E",
"B  c #FFFEFE",
"V  c #EA2727",
"C  c #EC3232",
"Z  c #FEF8EE",
"A  c #FEFDFD",
"S  c #FEF8F7",
"D  c #EE624B",
"F  c #EB3731",
"G  c #E12626",
"H  c #E82727",
"J  c #E52727",
"K  c #EB312F",
"L  c #EC3838",
"P  c #EC4444",
"I  c #EF634C",
"U  c #EA2D2B",
"Y  c #DF2626",
"T  c #CB2525",
"R  c #FFFDF9",
"E  c #FFFDFB",
"W  c #EC3935",
"Q  c #EB2D2B",
"!  c #E92727",
"~  c #C02424",
"^  c #DD2626",
"/  c #EB2C2B",
"(  c #FFFCF7",
")  c #EA2E2D",
"_  c #EB2E2D",
"`  c #C32525",
"'  c #C22424",
"]  c #E52F2E",
"[  c #EC4241",
"{  c #C42525",
"}  c #EB2C2C",
"|  c #FEF9F1",
" . c #EB302E",
".. c #C12424",
"X. c #E02626",
"o. c #FEFBF6",
"O. c #FDE1B8",
"+. c #BF2424",
"@. c #D02525",
"#. c #FEF8EF",
"$. c #FFFCFB",
"%. c #D32626",
"&. c #D42525",
"*. c #EB3432",
"=. c #FFFAF3",
"-. c #CE2525",
";. c #E22626",
":. c #FFFBF7",
">. c #FFFCF8",
",. c #EB2F2E",
"<. c #D32525",
"1. c #EC3B36",
"2. c #FFFBF6",
"3. c #EB3331",
"4. c #CD2525",
"5. c #D92626",
"6. c #C52424",
"7. c #C32424",
"8. c #FEF9F8",
"9. c #FFF8EF",
"0. c #C42424",
"q. c #F4D8B2",
"w. c #FEF4F3",
"e. c #C92525",
"r. c #CA2525",
"t. c snow",
"y. c #FFF8F8",
"u. c #C22525",
"i. c #E32928",
"p. c #E82626",
"a. c #FFF9F9",
"s. c #FEFCF8",
"d. c #EB2D2D",
"f. c #FFFDFA",
"g. c #FEFDFA",
"h. c #FEF4EB",
"j. c #FFF8F2",
"k. c #FBDFB7",
/* pixels */
"                .     X                     o               O +             @         # $   ",
"          %                                                                                 ",
"&   * = = = = = =     = = = % % % % % %     = = = = = =   = % = = = = % % %     = = = =   + ",
"- ; :                                                                                 =   > ",
"X   =                                                                                 =     ",
"                                                                                      =     ",
"    =                                                                                 =     ",
"X   =                                                                                 =     ",
"    =                                                                                 %     ",
"    %                                                                                 =   , ",
"    =                                       < < 1                                     =   , ",
"    =                                       2 3 4 5                                       O ",
"    =                                     < 6 7 8 9 0 q                                 w w ",
"X                                         e r t y u < e                                   ; ",
".                                       2 i t p t a s d <                             %   f ",
"                                      < g h j k t k j l d z                           =   # ",
"    =                               x c t t v b n n m M N 0                           =   X ",
"w   =                               B B V V b b m k t h C Z <                         =   X ",
"    =                             A S t V D F t t G H J K L e                         %   @ ",
"    %                           5 9 P V D I U k t H Y T t p R                         %   O ",
"    =                           E W V V I I V t Q t ! ~ ^ / B e                       %   o ",
"    =                         ( A p V t ) V V n _ n t ` ' ] [ e                       %   O ",
"    %                         < K V V / V V p b V V b { ~ H } |                       %     ",
"    %                         1  .V V t V t p V V V V ..~ X.7 o.                      =   O.",
"    %                         2 k V V V V m n n V t V +.~ @.t #.                      =   X ",
"    %                         $.n b p t V k V t t k %.~ +.&.*.=.                      %     ",
"    %                         E p p n b V b V V V V -.~ +.;.p :.                      =   X ",
"    =                         >./ b V V V t ,.V V <.~ ~ +.V 1.2.                      =   o ",
"    =                         B 3.V 4.! t t n 5.6.7.+.+...b 8.9.                            ",
"    =                         5 B V &.7.' 0...+.+.+.~ ~ ^ k B                             . ",
"q.                              w.t V e.+...~ ~ ~ ..' r.t t.E                               ",
"o                               2 y.V V V e.' { ..u.' ! v 1                           %     ",
"                                  B B t b n i.<.-.p.H b a.<                           %     ",
"    %                               s.9 9 t _ d.p h n e f.                            %     ",
"    %                                   g.h.j.1 >.( e                                 =     ",
"    %                                                                                 =     ",
"    %                                                                                       ",
"    %                                                                                 =     ",
"O   %                                                                                 =     ",
"    =                                                                                 =     ",
"    =                                                                                 =     ",
"                                                                                      %     ",
"    =                                                                                 =     ",
"    = = = = = = % % % %           = = = = = % % % = = = = = =     = = = = = % % % = = =     ",
"                                                        k.                                  ",
"  o                               O     +               o .                 + X .   o       "
};
