/* XPM */
static char *s65aPBQmjVHXRsE_png[] = {
/* columns rows colors chars-per-pixel */
"46 46 12 1 ",
"  c #FEE1B8",
". c #303843",
"X c #D4C692",
"o c #A57855",
"O c #3D3333",
"+ c #FDD179",
"@ c #DE9F47",
"# c #F1F6F0",
"$ c #6C81A1",
"% c #96A9C1",
"& c #405273",
"* c #14233A",
/* pixels */
"        ....        ...       ..      .    .. ",
"     X                                        ",
". ooooooo  oooXXXXXX  oooooo oXooooXXX  oooo .",
"..o                                        o .",
". o                                        o  ",
"                                           o  ",
"  o                                        o  ",
". o                   OOOO                 o  ",
"  o                  OO++OO                X  ",
"  X                  O+++@O                o .",
"  o                OOOO+@OOOO              o .",
"  o                O#+#+@@@@O                .",
"  o              OOO+OO+@OO@OOOO            ..",
".               OO#O#O#+#@O@O@OO             .",
".               O++++@+$$@@@@@@O           X .",
"                O++@@@#$%@@@@@@O           o .",
"  o             OO+O@O+@@@O@O@OO           o .",
". o             @OOO@OO@@OO@OOO@           o .",
"  o             @&&O@@@@@@@@O&&@           X .",
"  X             @&&OOOO@@OOOO&&@           X .",
"  o             @&&&&O+@++O&&&&@           X .",
"  o             @**&&OO@+OO&&**@           X .",
"  X             @***&&OOOO&&***@           X .",
"  X             @****&&&&&&****@           o .",
"  X             @**************@           o .",
"  X             @**************@           X .",
"  X             @**************@           o .",
"  o             @**************@           o .",
"  o             @**************@             .",
"  o             @**************@            ..",
".               @**************@             .",
".               @******@@******@           X  ",
"                @*****@  @*****@           X  ",
"  X             @****@    @****@           X  ",
"  X             @***@      @***@           o  ",
"  X             @**@        @**@           o  ",
"  X             @*@          @*@              ",
"  X             @@            @@           o  ",
". X             @              @           o  ",
"  o                                        o  ",
"  o                                        o  ",
"                                           X  ",
"  o                                        o  ",
"  ooooooXXXX     oooooXXXoooooo  oooooXXXooo  ",
"                            .                 ",
" .               ....       ..       .... .   "
};
