/* XPM */
static char *s65agTVQeMiOISE_png[] = {
/* columns rows colors chars-per-pixel */
"46 46 7 1 ",
"  c #303843",
". c #DE9F47",
"X c #A57855",
"o c #FDD179",
"O c #6C81A1",
"+ c #7A5859",
"@ c #405273",
/* pixels */
"                                              ",
" . XX oo..oooooooooooooooooooooooooo..oo XX . ",
"   OO                                    OO   ",
" +O@@O++++++++++++++++++++++++++++++++++O@@O+ ",
" +O@@O++++++++++++++++++++++++++++++++++O@@O+ ",
"   OO                                    OO   ",
" o XX @++++++++++++++++++++++++++++++++@ XX o ",
" o XX X                                X XX o ",
" . XX X                                X XX . ",
" . XX X                                X XX . ",
" o XX X                                X XX o ",
" o XX X                                X XX o ",
" o XX X                                X XX o ",
" o XX X                                X XX o ",
" o XX X                                X XX o ",
" o XX X                                X XX o ",
" o XX X                                X XX o ",
" o XX X                                X XX o ",
" o XX X                                X XX o ",
" o XX X                                X XX o ",
" o XX X                                X XX o ",
" o XX X                                X XX o ",
" o XX X                                X XX o ",
" o XX X                                X XX o ",
" o XX X                                X XX o ",
" o XX X                                X XX o ",
" o XX X                                X XX o ",
" o XX X                                X XX o ",
" o XX X                                X XX o ",
" o XX X                                X XX o ",
" o XX X                                X XX o ",
" o XX X                                X XX o ",
" o XX X                                X XX o ",
" o XX X                                X XX o ",
" o XX X                                X XX o ",
" o XX X                                X XX o ",
" . XX X                                X XX . ",
" . XX X                                X XX . ",
" o XX X                                X XX o ",
" o XX @++++++++++++++++++++++++++++++++@ XX o ",
"   OO                                    OO   ",
" +O@@O++++++++++++++++++++++++++++++++++O@@O+ ",
" +O@@O++++++++++++++++++++++++++++++++++O@@O+ ",
"   OO                                    OO   ",
" . XX oo..oooooooooooooooooooooooooo..oo XX . ",
"                                              "
};
