/* XPM */
static char *_6fe334bdc344ba8b7b2b46dcfd902b7cSlloE86fT77O3qy[] = {
/* columns rows colors chars-per-pixel */
"46 46 24 1 ",
"  c #FEE1B8",
". c #FCE0B7",
"X c #FDE0B7",
"o c #FCDFB7",
"O c #F9DDB5",
"+ c #FDE0B8",
"@ c #FBDEB6",
"# c #F8DCB5",
"$ c #F5DAB2",
"% c #D4C692",
"& c #FDDEB5",
"* c #BC946F",
"= c #A57855",
"- c #FADDB5",
"; c #FADEB6",
": c #AA7E5B",
"> c #FCDFB6",
", c #F7DBB4",
"< c #FBDFB6",
"1 c #FEE1B9",
"2 c #FADDB6",
"3 c #FDE1B8",
"4 c #F4D8B2",
"5 c #FBDFB7",
/* pixels */
"        .  X          o       O+      @    #$ ",
"     %                                        ",
"& *======  ===%%%%%%  ====== =%====%%%  ==== +",
"-;:                                        = >",
"X =                                        =  ",
"                                           =  ",
"  =                                        =  ",
"X =                                        =  ",
"  =                                        %  ",
"  %                                        = ,",
"  =                                        = ,",
"  =                                          O",
"  =                                         <<",
"X                  1                         ;",
".                                          % 2",
"                                           = #",
"  =                                        = X",
"< =                                        = X",
"  =                                        % @",
"  %                                        % O",
"  =                                        % o",
"  =                                        % O",
"  %                                        %  ",
"  %                                        = 3",
"  %                                        = X",
"  %                                        %  ",
"  %                                        = X",
"  =                                        = o",
"  =                                           ",
"  =                                          .",
"4                                             ",
"o                                          %  ",
"                                           %  ",
"  %                                        %  ",
"  %                                        =  ",
"  %                                        =  ",
"  %                                           ",
"  %                                        =  ",
"O %                                        =  ",
"  =                                        =  ",
"  =                                        =  ",
"                                           %  ",
"  =                                        =  ",
"  ======%%%%     =====%%%======  =====%%%===  ",
"                            5                 ",
" o               O  +       o.        +X. o   "
};
