/* XPM */
static char *s65auNhyWSzRZbw_png[] = {
/* columns rows colors chars-per-pixel */
"46 46 4 1 ",
"  c #FEE1B8",
". c #303843",
"X c #D4C692",
"o c #A57855",
/* pixels */
"        ....        ...       ..      .    .. ",
"     X                                        ",
". ooooooo  oooXXXXXX  oooooo oXooooXXX  oooo .",
"..o                                        o .",
". o                                        o  ",
"                                           o  ",
"  o                                        o  ",
". o                                        o  ",
"  o                                        X  ",
"  X                                        o .",
"  o                                        o .",
"  o                                          .",
"  o                                         ..",
".                                            .",
".                                          X .",
"                                           o .",
"  o                                        o .",
". o                                        o .",
"  o                                        X .",
"  X                                        X .",
"  o                                        X .",
"  o                                        X .",
"  X                                        X .",
"  X                                        o .",
"  X                                        o .",
"  X                                        X .",
"  X                                        o .",
"  o                                        o .",
"  o                                          .",
"  o                                         ..",
".                                            .",
".                                          X  ",
"                                           X  ",
"  X                                        X  ",
"  X                                        o  ",
"  X                                        o  ",
"  X                                           ",
"  X                                        o  ",
". X                                        o  ",
"  o                                        o  ",
"  o                                        o  ",
"                                           X  ",
"  o                                        o  ",
"  ooooooXXXX     oooooXXXoooooo  oooooXXXooo  ",
"                            .                 ",
" .               ....       ..       .... .   "
};
