/* XPM */
static char *s65aUUSmbo0BQZm_png[] = {
/* columns rows colors chars-per-pixel */
"46 46 49 1 ",
"  c #FEE1B8",
". c #303843",
"X c #D4C692",
"o c #A57855",
"O c white",
"+ c #1C2B2D",
"@ c #E6D5B8",
"# c #99A8B2",
"$ c #FEE3BD",
"% c #1F6F8B",
"& c #FFFDFA",
"* c #FFFEFD",
"= c #474E48",
"- c #1D2C2E",
"; c #FFFFFE",
": c #FDFDFD",
"> c #2A758D",
", c #2A3636",
"< c #FFFCF8",
"1 c #FEE2BB",
"2 c #FDE0B7",
"3 c #FEFFFF",
"4 c #206F8B",
"5 c #FAFAF9",
"6 c #FEE6C4",
"7 c #FCE0B8",
"8 c #1E2C2E",
"9 c #F6F9F9",
"0 c #FEE7C6",
"q c #FDE0B8",
"w c #FCFDFE",
"e c #FCFDFD",
"r c #FEE1B9",
"t c #FADFB7",
"y c #FCFDFC",
"u c #30778E",
"i c gray99",
"p c #F7F9F9",
"a c #F8FAFA",
"s c #3E7F91",
"d c #29748D",
"f c #223031",
"g c #F8DEB7",
"h c #FDFBF8",
"j c #FEFFFE",
"k c #FEFEFD",
"l c #FDFDFC",
"z c #F7F7F5",
"x c #F5F5F1",
/* pixels */
"        ....        ...       ..      .    .. ",
"     X                                        ",
". ooooooo  oooXXXXXX  oooooo oXooooXXX  oooo .",
"..o                                        o .",
". o                                        o  ",
"                   OOOOOOOOOOO             o  ",
"  o              OO+++++++++++OO           o  ",
". o             O++@@@@@@@@@@@++O          o  ",
"  o            O+@@@@@@@@@@@@@@@+O         X  ",
"  X           O+@@@@@@@@@@@@@@@@@+O        o .",
"  o          O+@@@@@@@@@@@@@@@@@@@+O       o .",
"  o      OOOO+@@@@@@@@@@@@@@@@@@@@@+O        .",
"  o     O+++O+@@@@@@@@@@@@@@@@@@@@@+O       ..",
".      O+@@@+@@@@@@@@@@@@@@@@@@@@@@@+O       .",
".      O+@@@@+@@@@@@@@@@@@@@@@@@@@@@+O     X .",
"        O+@@@@+@@@@@@@@@@@@@@@@@@@@@+O     o .",
"  o     O+@@@@@+@@@@@@@@@@@@@@@@@@@@@+O    o .",
". o     O+@@@@@+@@@@@@@@@++++@@@@@++++O    o .",
"  o      O+@@@@@+@@@@@@@@++++@@@@@+++++O   X .",
"  X      O+@@@@@+@@@@@@@++#+++@@@++#+++O   X .",
"  o      O+@@@@@@+@@@@@@++++++@@@++++++O   X .",
"  o       O+@@@@@@@@@@@@++++++@@@++++++O   X .",
"  X       O++@@@@@@@@@@@@++++#@@@@+++++O   X .",
"  X       O+@++@@@@@@@@@@++++#@@@@++++O    o .",
"  X        O+##@@@@@@@@@@@###@@@@@@##+O    o .",
"  X        O+@@@@@@@@@@@@@@@@@@@@@@@@+O    X .",
"  X        O+@@@@@@@@@@@@@@@@@@@@@@@@+O    o .",
"  o         O+@@@@@@@@@@@@@@@@@@@@@@+O     o .",
"  o       OOO+@@@@@@@@@@@@@@@@@@@@@@+OOO$    .",
"  o      O++++++++++++++@@@@++++++@@++++O   ..",
".        O+%%%%%%%%%%%%+@@@@@+@@+@@+++++O    .",
".        O+%%%%%%%%%%%%+@@@@@@@@@@+++++O   X  ",
"          &+%%%%%%%%%%%+@@@@@@@@@++++OO    X  ",
"  X       *=%%%%%%%%%%+@@@@@@@@@++++-&     X  ",
"  X        ;:>%%%%%%%%+@@@@@@@@++++,<1     o  ",
"  X         234%%%%%%%+++++++++++++56      o  ",
"  X          7O%%%%%%%+++++++++++890          ",
"  X           q3w%%%%%%++++++++++er        o  ",
". X            qtyu4%%%%++++++++O$         o  ",
"  o              2Oipasd+++++8fOq          o  ",
"  o                 qg*hjO;klzxq           o  ",
"                                           X  ",
"  o                                        o  ",
"  ooooooXXXX     oooooXXXoooooo  oooooXXXooo  ",
"                            .                 ",
" .               ....       ..       .... .   "
};
