/* XPM */
static char *a5db52b032a74c74d7640584ec9558afqoGNx0pk4fTQocRG[] = {
/* columns rows colors chars-per-pixel */
"46 46 81 1 ",
"  c #FEE1B8",
". c #FDE0B7",
"X c #FDE1B8",
"o c #FCDFB7",
"O c #FDE0B8",
"+ c #F8DCB5",
"@ c #D4C692",
"# c #A57855",
"$ c white",
"% c #1C2B2D",
"& c #FADEB6",
"* c #E6D5B8",
"= c #A77A57",
"- c #F8DCB4",
"; c #AE825F",
": c #FEFEFC",
"> c #FFFEFD",
", c #202F31",
"< c #1D2C2E",
"1 c #F6DAB4",
"2 c #FFFFFE",
"3 c #243132",
"4 c #1E2D2F",
"5 c #253333",
"6 c #1F2E2F",
"7 c #2A3637",
"8 c #E3D2B6",
"9 c #F4F6F6",
"0 c #FEFEFE",
"q c #212F31",
"w c #1E2C2E",
"e c #2C3939",
"r c #263434",
"t c #D5C6AC",
"y c #223031",
"u c #FFE2BA",
"i c #D9CAAF",
"p c #253334",
"a c #95A4AE",
"s c #1D2C2F",
"d c #273434",
"f c #99A8B2",
"g c #F9DDB5",
"h c #FEE3BD",
"j c #1F6F8B",
"k c #FADEB5",
"l c #FBDFB6",
"z c #FFFDFA",
"x c #474E48",
"c c #FDFDFD",
"v c #2A758D",
"b c #2A3636",
"n c #FFFCF8",
"m c #FEE2BB",
"M c #FEFFFF",
"N c #206F8B",
"B c #FAFAF9",
"V c #FEE6C4",
"C c #FCE0B8",
"Z c #F6F9F9",
"A c #FEE7C6",
"S c #FCFDFE",
"D c #FCFDFD",
"F c #FEE1B9",
"G c #FADFB7",
"H c #FCFDFC",
"J c #30778E",
"K c gray99",
"L c #F7F9F9",
"P c #F8FAFA",
"I c #3E7F91",
"U c #29748D",
"Y c #F8DEB7",
"T c #FDFBF8",
"R c #FEFFFE",
"E c #FEFEFD",
"W c #FDFDFC",
"Q c #F7F7F5",
"! c #F5F5F1",
"~ c #FCE0B7",
"^ c #FBDEB6",
/* pixels */
"        . Xo                  O       +    O. ",
"     @                                        ",
"X #######  ###@@@@@@  ###### #@####@@@  #### .",
" o#                                        # .",
". #                                        #  ",
"                   $$$$$$$$$$$             #  ",
"  #              $$%%%%%%%%%%%$$           #  ",
"& #             $%%***********%%$          #  ",
"  #            $%***************%$         @  ",
"  @           $%*****************%$        = -",
"  #          $%*******************%$       ; o",
"  #    :>$$$$%*********************%$        .",
"  #    $,<%%$%*********************%$         ",
"       $%***%***********************%$       .",
".      $%****%**********************%$     @ 1",
"        $%****%*********************%$2$>  # .",
"  #     $%*****%<3*****%%45**********%<62  # O",
"  #     $%*****%.%%<78**%%%%%*****%%%%490  # O",
"  #      $%*****%*.q<%wer%%%%*ty**%%%%%$u  @ .",
"  @      $%*****%****ip%%as%%%54d%%f%%%$   @ o",
"  #      $%******%******%%%%%%***%%%%%%$   @ .",
"  #       $%************%%%%%%***%%%%%%$   @  ",
"  @       $%%************%%%%f****%%%%%$   @ O",
"  @       $%*%%**********%%%%f****%%%%$    # g",
"  @        $%ff***********fff******ff%$    # .",
"  @        $%************************%$    @ O",
"  @        $%************************%$    # .",
"  #         $%**********************%$     #  ",
"  #       $$$%**********************%$$$h     ",
"  #      $%%%%%%%%%%%%%%****%%%%%%**%%%%$   o.",
"         $%jjjjjjjjjjjj%*****%**%**%%%%%$    k",
"l        $%jjjjjjjjjjjj%**********%%%%%$   @  ",
"          z%jjjjjjjjjjj%*********%%%%$$    @  ",
"  @       >xjjjjjjjjjj%*********%%%%<z     @  ",
"  @        2cvjjjjjjjj%********%%%%bnm     #  ",
"  @         .MNjjjjjjj%%%%%%%%%%%%%BV      #  ",
"  @          C$jjjjjjj%%%%%%%%%%%wZA          ",
"  @           OMSjjjjjj%%%%%%%%%%DF        #  ",
"g @            OGHJNjjjj%%%%%%%%$h         #  ",
"  #              .$KLPIU%%%%%wy$O          #  ",
"  #                 OY>TR$2EWQ!O           #  ",
"                                           @  ",
"  #                                        #  ",
"  ######@@@@     #####@@@######  #####@@@###  ",
"                            .                 ",
" .               . ~.       .o       ^kgl &   "
};
