/* XPM */
static char *s65aPakJ1sReSgJ_png[] = {
/* columns rows colors chars-per-pixel */
"46 46 4 1 ",
"  c #303843",
". c #DE9F47",
"X c #FDD179",
"o c #405273",
/* pixels */
"                                              ",
" .X ..XX..XXXXXXXXXXXXXXXXXXXXXXXXXX..XX.. X. ",
" X. .                                    . .X ",
"    X . ..XX . oooooooooooooooo . XX.. . X    ",
" ..X. X .   o oooooooooooooooooo o   . X .X.. ",
" .    X X oooooooooooooooooooooooooo X X    . ",
" X .XXX X oooooooooooooooooooooooooo X XXX. X ",
" X      X oooooooooooooooooooooooooo X      X ",
" . ..XXX. oooooooooooooooooooooooooo .XXX.. . ",
" . .     oooooooooooooooooooooooooooo     . . ",
" X X oooooooooooooooooooooooooooooooooooo X X ",
" X X oooooooooooooooooooooooooooooooooooo X X ",
" X  oooooooooooooooooooooooooooooooooooooo  X ",
" X . oooooooooooooooooooooooooooooooooooo . X ",
" X  oooooooooooooooooooooooooooooooooooooo  X ",
" X oooooooooooooooooooooooooooooooooooooooo X ",
" X oooooooooooooooooooooooooooooooooooooooo X ",
" X oooooooooooooooooooooooooooooooooooooooo X ",
" X oooooooooooooooooooooooooooooooooooooooo X ",
" X oooooooooooooooooooooooooooooooooooooooo X ",
" X oooooooooooooooooooooooooooooooooooooooo X ",
" X oooooooooooooooooooooooooooooooooooooooo X ",
" X oooooooooooooooooooooooooooooooooooooooo X ",
" X oooooooooooooooooooooooooooooooooooooooo X ",
" X oooooooooooooooooooooooooooooooooooooooo X ",
" X oooooooooooooooooooooooooooooooooooooooo X ",
" X oooooooooooooooooooooooooooooooooooooooo X ",
" X oooooooooooooooooooooooooooooooooooooooo X ",
" X oooooooooooooooooooooooooooooooooooooooo X ",
" X oooooooooooooooooooooooooooooooooooooooo X ",
" X oooooooooooooooooooooooooooooooooooooooo X ",
" X  oooooooooooooooooooooooooooooooooooooo  X ",
" X . oooooooooooooooooooooooooooooooooooo . X ",
" X  oooooooooooooooooooooooooooooooooooooo  X ",
" X X oooooooooooooooooooooooooooooooooooo X X ",
" X X oooooooooooooooooooooooooooooooooooo X X ",
" . .     oooooooooooooooooooooooooooo     . . ",
" . ..XXX. oooooooooooooooooooooooooo .XXX.. . ",
" X      X oooooooooooooooooooooooooo X      X ",
" X .XXX X oooooooooooooooooooooooooo X XXX. X ",
" .    X X oooooooooooooooooooooooooo X X    . ",
" ..X. X .   o oooooooooooooooooo o   . X .X.. ",
"    X . ..XX . oooooooooooooooo . XX.. . X    ",
" X. .                                    . .X ",
" .X ..XX..XXXXXXXXXXXXXXXXXXXXXXXXXX..XX.. X. ",
"                                              "
};
